<svg width="28" height="28" viewBox="0 0 28 28" fill="none" xmlns="http://www.w3.org/2000/svg">
<path d="M10.4996 16.3333C10.4996 16.3333 12.0308 18.0833 14.5829 18.0833C17.135 18.0833 18.6662 16.3333 18.6662 16.3333M17.7912 10.5H17.8029M11.3746 10.5H11.3862M14.5829 23.3333C20.0597 23.3333 24.4996 18.8935 24.4996 13.4167C24.4996 7.93984 20.0597 3.5 14.5829 3.5C9.10608 3.5 4.66623 7.93984 4.66623 13.4167C4.66623 14.525 4.84806 15.5909 5.1835 16.586C5.30973 16.9606 5.37285 17.1478 5.38423 17.2917C5.39548 17.4337 5.38698 17.5333 5.35183 17.6714C5.31624 17.8113 5.23766 17.9567 5.08051 18.2476L3.17224 21.7797C2.90005 22.2836 2.76395 22.5355 2.79441 22.7299C2.82094 22.8992 2.92061 23.0483 3.06694 23.1376C3.23494 23.2401 3.51975 23.2106 4.08937 23.1518L10.0639 22.5342C10.2448 22.5155 10.3353 22.5061 10.4177 22.5093C10.4988 22.5124 10.5561 22.52 10.6352 22.5382C10.7156 22.5568 10.8167 22.5957 11.0189 22.6736C12.125 23.0997 13.3267 23.3333 14.5829 23.3333ZM18.3746 10.5C18.3746 10.8222 18.1134 11.0833 17.7912 11.0833C17.4691 11.0833 17.2079 10.8222 17.2079 10.5C17.2079 10.1778 17.4691 9.91667 17.7912 9.91667C18.1134 9.91667 18.3746 10.1778 18.3746 10.5ZM11.9579 10.5C11.9579 10.8222 11.6967 11.0833 11.3746 11.0833C11.0524 11.0833 10.7912 10.8222 10.7912 10.5C10.7912 10.1778 11.0524 9.91667 11.3746 9.91667C11.6967 9.91667 11.9579 10.1778 11.9579 10.5Z" stroke="url(#paint0_linear_2130_2895)" stroke-width="2.33333" stroke-linecap="round" stroke-linejoin="round"/>
<path d="M10.4996 16.3333C10.4996 16.3333 12.0308 18.0833 14.5829 18.0833C17.135 18.0833 18.6662 16.3333 18.6662 16.3333M17.7912 10.5H17.8029M11.3746 10.5H11.3862M14.5829 23.3333C20.0597 23.3333 24.4996 18.8935 24.4996 13.4167C24.4996 7.93984 20.0597 3.5 14.5829 3.5C9.10608 3.5 4.66623 7.93984 4.66623 13.4167C4.66623 14.525 4.84806 15.5909 5.1835 16.586C5.30973 16.9606 5.37285 17.1478 5.38423 17.2917C5.39548 17.4337 5.38698 17.5333 5.35183 17.6714C5.31624 17.8113 5.23766 17.9567 5.08051 18.2476L3.17224 21.7797C2.90005 22.2836 2.76395 22.5355 2.79441 22.7299C2.82094 22.8992 2.92061 23.0483 3.06694 23.1376C3.23494 23.2401 3.51975 23.2106 4.08937 23.1518L10.0639 22.5342C10.2448 22.5155 10.3353 22.5061 10.4177 22.5093C10.4988 22.5124 10.5561 22.52 10.6352 22.5382C10.7156 22.5568 10.8167 22.5957 11.0189 22.6736C12.125 23.0997 13.3267 23.3333 14.5829 23.3333ZM18.3746 10.5C18.3746 10.8222 18.1134 11.0833 17.7912 11.0833C17.4691 11.0833 17.2079 10.8222 17.2079 10.5C17.2079 10.1778 17.4691 9.91667 17.7912 9.91667C18.1134 9.91667 18.3746 10.1778 18.3746 10.5ZM11.9579 10.5C11.9579 10.8222 11.6967 11.0833 11.3746 11.0833C11.0524 11.0833 10.7912 10.8222 10.7912 10.5C10.7912 10.1778 11.0524 9.91667 11.3746 9.91667C11.6967 9.91667 11.9579 10.1778 11.9579 10.5Z" stroke="url(#paint1_linear_2130_2895)" stroke-width="2.33333" stroke-linecap="round" stroke-linejoin="round"/>
<defs>
<linearGradient id="paint0_linear_2130_2895" x1="2.79009" y1="13.3835" x2="19.4968" y2="4.24145" gradientUnits="userSpaceOnUse">
<stop stop-color="#003C91"/>
<stop offset="1" stop-color="#0066DC"/>
</linearGradient>
<linearGradient id="paint1_linear_2130_2895" x1="-15.1125" y1="-32.938" x2="35.7208" y2="-18.1977" gradientUnits="userSpaceOnUse">
<stop offset="0.13" stop-color="#EEAAFD"/>
<stop offset="0.71" stop-color="#8F65F8"/>
<stop offset="1" stop-color="#483185"/>
</linearGradient>
</defs>
</svg>
