<svg width="28" height="28" viewBox="0 0 28 28" fill="none" xmlns="http://www.w3.org/2000/svg">
<path d="M7.11009 13.1003C7.03757 12.633 6.99995 12.1542 6.99995 11.6667C6.99995 6.51205 11.2061 2.33337 16.3947 2.33337C21.5833 2.33337 25.7894 6.51205 25.7894 11.6667C25.7894 12.8311 25.5748 13.9457 25.1827 14.9736C25.1012 15.1871 25.0605 15.2939 25.042 15.3772C25.0237 15.4598 25.0166 15.5178 25.0146 15.6024C25.0126 15.6877 25.0242 15.7817 25.0474 15.9698L25.517 19.785C25.5679 20.198 25.5933 20.4045 25.5246 20.5546C25.4644 20.6862 25.3575 20.7907 25.2246 20.8478C25.0729 20.913 24.8671 20.8828 24.4553 20.8225L20.7392 20.2778C20.5452 20.2493 20.4481 20.2351 20.3598 20.2356C20.2724 20.2361 20.2119 20.2426 20.1263 20.2605C20.0399 20.2787 19.9294 20.3201 19.7085 20.4029C18.6779 20.7888 17.5611 21 16.3947 21C15.9068 21 15.4276 20.9631 14.9598 20.8919M8.9035 25.6667C12.3625 25.6667 15.1667 22.7939 15.1667 19.25C15.1667 15.7062 12.3625 12.8334 8.9035 12.8334C5.44446 12.8334 2.64035 15.7062 2.64035 19.25C2.64035 19.9624 2.75365 20.6476 2.9628 21.2879C3.05121 21.5585 3.09542 21.6939 3.10993 21.7863C3.12507 21.8828 3.12773 21.937 3.12209 22.0345C3.11668 22.128 3.09331 22.2336 3.04656 22.4447L2.33333 25.6667L5.82726 25.1895C6.01797 25.1635 6.11332 25.1505 6.19659 25.151C6.28427 25.1516 6.3308 25.1564 6.41679 25.1735C6.49845 25.1898 6.61985 25.2326 6.86264 25.3183C7.50235 25.5441 8.18895 25.6667 8.9035 25.6667Z" stroke="url(#paint0_linear_2130_2871)" stroke-width="2.33333" stroke-linecap="round" stroke-linejoin="round"/>
<path d="M7.11009 13.1003C7.03757 12.633 6.99995 12.1542 6.99995 11.6667C6.99995 6.51205 11.2061 2.33337 16.3947 2.33337C21.5833 2.33337 25.7894 6.51205 25.7894 11.6667C25.7894 12.8311 25.5748 13.9457 25.1827 14.9736C25.1012 15.1871 25.0605 15.2939 25.042 15.3772C25.0237 15.4598 25.0166 15.5178 25.0146 15.6024C25.0126 15.6877 25.0242 15.7817 25.0474 15.9698L25.517 19.785C25.5679 20.198 25.5933 20.4045 25.5246 20.5546C25.4644 20.6862 25.3575 20.7907 25.2246 20.8478C25.0729 20.913 24.8671 20.8828 24.4553 20.8225L20.7392 20.2778C20.5452 20.2493 20.4481 20.2351 20.3598 20.2356C20.2724 20.2361 20.2119 20.2426 20.1263 20.2605C20.0399 20.2787 19.9294 20.3201 19.7085 20.4029C18.6779 20.7888 17.5611 21 16.3947 21C15.9068 21 15.4276 20.9631 14.9598 20.8919M8.9035 25.6667C12.3625 25.6667 15.1667 22.7939 15.1667 19.25C15.1667 15.7062 12.3625 12.8334 8.9035 12.8334C5.44446 12.8334 2.64035 15.7062 2.64035 19.25C2.64035 19.9624 2.75365 20.6476 2.9628 21.2879C3.05121 21.5585 3.09542 21.6939 3.10993 21.7863C3.12507 21.8828 3.12773 21.937 3.12209 22.0345C3.11668 22.128 3.09331 22.2336 3.04656 22.4447L2.33333 25.6667L5.82726 25.1895C6.01797 25.1635 6.11332 25.1505 6.19659 25.151C6.28427 25.1516 6.3308 25.1564 6.41679 25.1735C6.49845 25.1898 6.61985 25.2326 6.86264 25.3183C7.50235 25.5441 8.18895 25.6667 8.9035 25.6667Z" stroke="url(#paint1_linear_2130_2871)" stroke-width="2.33333" stroke-linecap="round" stroke-linejoin="round"/>
<defs>
<linearGradient id="paint0_linear_2130_2871" x1="2.3332" y1="13.961" x2="21.0598" y2="4.54999" gradientUnits="userSpaceOnUse">
<stop stop-color="#003C91"/>
<stop offset="1" stop-color="#0066DC"/>
</linearGradient>
<linearGradient id="paint1_linear_2130_2871" x1="-17.0098" y1="-40.5349" x2="38.5887" y2="-25.7285" gradientUnits="userSpaceOnUse">
<stop offset="0.13" stop-color="#EEAAFD"/>
<stop offset="0.71" stop-color="#8F65F8"/>
<stop offset="1" stop-color="#483185"/>
</linearGradient>
</defs>
</svg>
